G04 #@! TF.FileFunction,Legend,Top*
%FSLAX46Y46*%
G04 Gerber Fmt 4.6, Leading zero omitted, Abs format (unit mm)*
G04 Created by KiCad (PCBNEW 4.0.6) date Monday, 31 July 2017 'PMt' 21:07:52*
%MOMM*%
%LPD*%
G01*
G04 APERTURE LIST*
%ADD10C,0.100000*%
%ADD11C,0.200000*%
%ADD12C,0.300000*%
%ADD13C,0.150000*%
%ADD14C,0.120000*%
G04 APERTURE END LIST*
D10*
D11*
X147049047Y-76405476D02*
X147287143Y-76405476D01*
X147406190Y-76465000D01*
X147525238Y-76584048D01*
X147584762Y-76822143D01*
X147584762Y-77238810D01*
X147525238Y-77476905D01*
X147406190Y-77595952D01*
X147287143Y-77655476D01*
X147049047Y-77655476D01*
X146930000Y-77595952D01*
X146810952Y-77476905D01*
X146751428Y-77238810D01*
X146751428Y-76822143D01*
X146810952Y-76584048D01*
X146930000Y-76465000D01*
X147049047Y-76405476D01*
X148120476Y-77655476D02*
X148120476Y-76822143D01*
X148120476Y-77060238D02*
X148180000Y-76941190D01*
X148239524Y-76881667D01*
X148358571Y-76822143D01*
X148477619Y-76822143D01*
X149430000Y-77655476D02*
X149430000Y-77000714D01*
X149370477Y-76881667D01*
X149251429Y-76822143D01*
X149013334Y-76822143D01*
X148894286Y-76881667D01*
X149430000Y-77595952D02*
X149310953Y-77655476D01*
X149013334Y-77655476D01*
X148894286Y-77595952D01*
X148834762Y-77476905D01*
X148834762Y-77357857D01*
X148894286Y-77238810D01*
X149013334Y-77179286D01*
X149310953Y-77179286D01*
X149430000Y-77119762D01*
X150025238Y-76822143D02*
X150025238Y-77655476D01*
X150025238Y-76941190D02*
X150084762Y-76881667D01*
X150203809Y-76822143D01*
X150382381Y-76822143D01*
X150501429Y-76881667D01*
X150560952Y-77000714D01*
X150560952Y-77655476D01*
X151691904Y-76822143D02*
X151691904Y-77834048D01*
X151632381Y-77953095D01*
X151572857Y-78012619D01*
X151453809Y-78072143D01*
X151275238Y-78072143D01*
X151156190Y-78012619D01*
X151691904Y-77595952D02*
X151572857Y-77655476D01*
X151334761Y-77655476D01*
X151215714Y-77595952D01*
X151156190Y-77536429D01*
X151096666Y-77417381D01*
X151096666Y-77060238D01*
X151156190Y-76941190D01*
X151215714Y-76881667D01*
X151334761Y-76822143D01*
X151572857Y-76822143D01*
X151691904Y-76881667D01*
X152763333Y-77595952D02*
X152644285Y-77655476D01*
X152406190Y-77655476D01*
X152287142Y-77595952D01*
X152227618Y-77476905D01*
X152227618Y-77000714D01*
X152287142Y-76881667D01*
X152406190Y-76822143D01*
X152644285Y-76822143D01*
X152763333Y-76881667D01*
X152822856Y-77000714D01*
X152822856Y-77119762D01*
X152227618Y-77238810D01*
X154310952Y-77655476D02*
X154310952Y-76405476D01*
X154787143Y-76405476D01*
X154906190Y-76465000D01*
X154965714Y-76524524D01*
X155025238Y-76643571D01*
X155025238Y-76822143D01*
X154965714Y-76941190D01*
X154906190Y-77000714D01*
X154787143Y-77060238D01*
X154310952Y-77060238D01*
X155560952Y-77655476D02*
X155560952Y-76822143D01*
X155560952Y-76405476D02*
X155501428Y-76465000D01*
X155560952Y-76524524D01*
X155620476Y-76465000D01*
X155560952Y-76405476D01*
X155560952Y-76524524D01*
X156989523Y-76405476D02*
X157822857Y-76405476D01*
X156989523Y-77655476D01*
X157822857Y-77655476D01*
X158775238Y-77595952D02*
X158656190Y-77655476D01*
X158418095Y-77655476D01*
X158299047Y-77595952D01*
X158239523Y-77476905D01*
X158239523Y-77000714D01*
X158299047Y-76881667D01*
X158418095Y-76822143D01*
X158656190Y-76822143D01*
X158775238Y-76881667D01*
X158834761Y-77000714D01*
X158834761Y-77119762D01*
X158239523Y-77238810D01*
X159370476Y-77655476D02*
X159370476Y-76822143D01*
X159370476Y-77060238D02*
X159430000Y-76941190D01*
X159489524Y-76881667D01*
X159608571Y-76822143D01*
X159727619Y-76822143D01*
X160322857Y-77655476D02*
X160203810Y-77595952D01*
X160144286Y-77536429D01*
X160084762Y-77417381D01*
X160084762Y-77060238D01*
X160144286Y-76941190D01*
X160203810Y-76881667D01*
X160322857Y-76822143D01*
X160501429Y-76822143D01*
X160620477Y-76881667D01*
X160680000Y-76941190D01*
X160739524Y-77060238D01*
X160739524Y-77417381D01*
X160680000Y-77536429D01*
X160620477Y-77595952D01*
X160501429Y-77655476D01*
X160322857Y-77655476D01*
X162168095Y-76345952D02*
X161096667Y-77953095D01*
X162584762Y-77655476D02*
X162584762Y-76405476D01*
X162882381Y-76405476D01*
X163060953Y-76465000D01*
X163180000Y-76584048D01*
X163239524Y-76703095D01*
X163299048Y-76941190D01*
X163299048Y-77119762D01*
X163239524Y-77357857D01*
X163180000Y-77476905D01*
X163060953Y-77595952D01*
X162882381Y-77655476D01*
X162584762Y-77655476D01*
X163656191Y-76405476D02*
X164072857Y-77655476D01*
X164489524Y-76405476D01*
X164906191Y-77655476D02*
X164906191Y-76405476D01*
X165322858Y-77298333D01*
X165739524Y-76405476D01*
X165739524Y-77655476D01*
X166810953Y-77595952D02*
X166691905Y-77655476D01*
X166453810Y-77655476D01*
X166334762Y-77595952D01*
X166275238Y-77476905D01*
X166275238Y-77000714D01*
X166334762Y-76881667D01*
X166453810Y-76822143D01*
X166691905Y-76822143D01*
X166810953Y-76881667D01*
X166870476Y-77000714D01*
X166870476Y-77119762D01*
X166275238Y-77238810D01*
X167941905Y-76822143D02*
X167941905Y-77834048D01*
X167882382Y-77953095D01*
X167822858Y-78012619D01*
X167703810Y-78072143D01*
X167525239Y-78072143D01*
X167406191Y-78012619D01*
X167941905Y-77595952D02*
X167822858Y-77655476D01*
X167584762Y-77655476D01*
X167465715Y-77595952D01*
X167406191Y-77536429D01*
X167346667Y-77417381D01*
X167346667Y-77060238D01*
X167406191Y-76941190D01*
X167465715Y-76881667D01*
X167584762Y-76822143D01*
X167822858Y-76822143D01*
X167941905Y-76881667D01*
X169072857Y-77655476D02*
X169072857Y-77000714D01*
X169013334Y-76881667D01*
X168894286Y-76822143D01*
X168656191Y-76822143D01*
X168537143Y-76881667D01*
X169072857Y-77595952D02*
X168953810Y-77655476D01*
X168656191Y-77655476D01*
X168537143Y-77595952D01*
X168477619Y-77476905D01*
X168477619Y-77357857D01*
X168537143Y-77238810D01*
X168656191Y-77179286D01*
X168953810Y-77179286D01*
X169072857Y-77119762D01*
X170560952Y-77298333D02*
X171156190Y-77298333D01*
X170441905Y-77655476D02*
X170858571Y-76405476D01*
X171275238Y-77655476D01*
X172227619Y-77655476D02*
X172227619Y-76405476D01*
X172227619Y-77595952D02*
X172108572Y-77655476D01*
X171870476Y-77655476D01*
X171751429Y-77595952D01*
X171691905Y-77536429D01*
X171632381Y-77417381D01*
X171632381Y-77060238D01*
X171691905Y-76941190D01*
X171751429Y-76881667D01*
X171870476Y-76822143D01*
X172108572Y-76822143D01*
X172227619Y-76881667D01*
X173358571Y-77655476D02*
X173358571Y-77000714D01*
X173299048Y-76881667D01*
X173180000Y-76822143D01*
X172941905Y-76822143D01*
X172822857Y-76881667D01*
X173358571Y-77595952D02*
X173239524Y-77655476D01*
X172941905Y-77655476D01*
X172822857Y-77595952D01*
X172763333Y-77476905D01*
X172763333Y-77357857D01*
X172822857Y-77238810D01*
X172941905Y-77179286D01*
X173239524Y-77179286D01*
X173358571Y-77119762D01*
X173953809Y-76822143D02*
X173953809Y-78072143D01*
X173953809Y-76881667D02*
X174072857Y-76822143D01*
X174310952Y-76822143D01*
X174430000Y-76881667D01*
X174489523Y-76941190D01*
X174549047Y-77060238D01*
X174549047Y-77417381D01*
X174489523Y-77536429D01*
X174430000Y-77595952D01*
X174310952Y-77655476D01*
X174072857Y-77655476D01*
X173953809Y-77595952D01*
X174906190Y-76822143D02*
X175382380Y-76822143D01*
X175084761Y-76405476D02*
X175084761Y-77476905D01*
X175144285Y-77595952D01*
X175263332Y-77655476D01*
X175382380Y-77655476D01*
X176275238Y-77595952D02*
X176156190Y-77655476D01*
X175918095Y-77655476D01*
X175799047Y-77595952D01*
X175739523Y-77476905D01*
X175739523Y-77000714D01*
X175799047Y-76881667D01*
X175918095Y-76822143D01*
X176156190Y-76822143D01*
X176275238Y-76881667D01*
X176334761Y-77000714D01*
X176334761Y-77119762D01*
X175739523Y-77238810D01*
X176870476Y-77655476D02*
X176870476Y-76822143D01*
X176870476Y-77060238D02*
X176930000Y-76941190D01*
X176989524Y-76881667D01*
X177108571Y-76822143D01*
X177227619Y-76822143D01*
D12*
X144361043Y-90194700D02*
X144218186Y-90123271D01*
X144003900Y-90123271D01*
X143789615Y-90194700D01*
X143646757Y-90337557D01*
X143575329Y-90480414D01*
X143503900Y-90766129D01*
X143503900Y-90980414D01*
X143575329Y-91266129D01*
X143646757Y-91408986D01*
X143789615Y-91551843D01*
X144003900Y-91623271D01*
X144146757Y-91623271D01*
X144361043Y-91551843D01*
X144432472Y-91480414D01*
X144432472Y-90980414D01*
X144146757Y-90980414D01*
X145075329Y-91623271D02*
X145075329Y-90123271D01*
X145932472Y-91623271D01*
X145932472Y-90123271D01*
X146646758Y-91623271D02*
X146646758Y-90123271D01*
X147003901Y-90123271D01*
X147218186Y-90194700D01*
X147361044Y-90337557D01*
X147432472Y-90480414D01*
X147503901Y-90766129D01*
X147503901Y-90980414D01*
X147432472Y-91266129D01*
X147361044Y-91408986D01*
X147218186Y-91551843D01*
X147003901Y-91623271D01*
X146646758Y-91623271D01*
X145294387Y-92942671D02*
X144580101Y-92942671D01*
X144508672Y-93656957D01*
X144580101Y-93585529D01*
X144722958Y-93514100D01*
X145080101Y-93514100D01*
X145222958Y-93585529D01*
X145294387Y-93656957D01*
X145365815Y-93799814D01*
X145365815Y-94156957D01*
X145294387Y-94299814D01*
X145222958Y-94371243D01*
X145080101Y-94442671D01*
X144722958Y-94442671D01*
X144580101Y-94371243D01*
X144508672Y-94299814D01*
X145794386Y-92942671D02*
X146294386Y-94442671D01*
X146794386Y-92942671D01*
X139844286Y-102777143D02*
X140058572Y-102848571D01*
X140415715Y-102848571D01*
X140558572Y-102777143D01*
X140630001Y-102705714D01*
X140701429Y-102562857D01*
X140701429Y-102420000D01*
X140630001Y-102277143D01*
X140558572Y-102205714D01*
X140415715Y-102134286D01*
X140130001Y-102062857D01*
X139987143Y-101991429D01*
X139915715Y-101920000D01*
X139844286Y-101777143D01*
X139844286Y-101634286D01*
X139915715Y-101491429D01*
X139987143Y-101420000D01*
X140130001Y-101348571D01*
X140487143Y-101348571D01*
X140701429Y-101420000D01*
X142201429Y-102705714D02*
X142130000Y-102777143D01*
X141915714Y-102848571D01*
X141772857Y-102848571D01*
X141558572Y-102777143D01*
X141415714Y-102634286D01*
X141344286Y-102491429D01*
X141272857Y-102205714D01*
X141272857Y-101991429D01*
X141344286Y-101705714D01*
X141415714Y-101562857D01*
X141558572Y-101420000D01*
X141772857Y-101348571D01*
X141915714Y-101348571D01*
X142130000Y-101420000D01*
X142201429Y-101491429D01*
X143558572Y-102848571D02*
X142844286Y-102848571D01*
X142844286Y-101348571D01*
X145130000Y-101277143D02*
X143844286Y-103205714D01*
X146487144Y-102848571D02*
X145987144Y-102134286D01*
X145630001Y-102848571D02*
X145630001Y-101348571D01*
X146201429Y-101348571D01*
X146344287Y-101420000D01*
X146415715Y-101491429D01*
X146487144Y-101634286D01*
X146487144Y-101848571D01*
X146415715Y-101991429D01*
X146344287Y-102062857D01*
X146201429Y-102134286D01*
X145630001Y-102134286D01*
X146987144Y-101348571D02*
X147987144Y-102848571D01*
X147987144Y-101348571D02*
X146987144Y-102848571D01*
X139987143Y-105377143D02*
X140201429Y-105448571D01*
X140558572Y-105448571D01*
X140701429Y-105377143D01*
X140772858Y-105305714D01*
X140844286Y-105162857D01*
X140844286Y-105020000D01*
X140772858Y-104877143D01*
X140701429Y-104805714D01*
X140558572Y-104734286D01*
X140272858Y-104662857D01*
X140130000Y-104591429D01*
X140058572Y-104520000D01*
X139987143Y-104377143D01*
X139987143Y-104234286D01*
X140058572Y-104091429D01*
X140130000Y-104020000D01*
X140272858Y-103948571D01*
X140630000Y-103948571D01*
X140844286Y-104020000D01*
X141487143Y-105448571D02*
X141487143Y-103948571D01*
X141844286Y-103948571D01*
X142058571Y-104020000D01*
X142201429Y-104162857D01*
X142272857Y-104305714D01*
X142344286Y-104591429D01*
X142344286Y-104805714D01*
X142272857Y-105091429D01*
X142201429Y-105234286D01*
X142058571Y-105377143D01*
X141844286Y-105448571D01*
X141487143Y-105448571D01*
X142915714Y-105020000D02*
X143630000Y-105020000D01*
X142772857Y-105448571D02*
X143272857Y-103948571D01*
X143772857Y-105448571D01*
X145344285Y-103877143D02*
X144058571Y-105805714D01*
X145630000Y-103948571D02*
X146487143Y-103948571D01*
X146058572Y-105448571D02*
X146058572Y-103948571D01*
X146844286Y-103948571D02*
X147844286Y-105448571D01*
X147844286Y-103948571D02*
X146844286Y-105448571D01*
X144337143Y-98820000D02*
X144194286Y-98748571D01*
X143980000Y-98748571D01*
X143765715Y-98820000D01*
X143622857Y-98962857D01*
X143551429Y-99105714D01*
X143480000Y-99391429D01*
X143480000Y-99605714D01*
X143551429Y-99891429D01*
X143622857Y-100034286D01*
X143765715Y-100177143D01*
X143980000Y-100248571D01*
X144122857Y-100248571D01*
X144337143Y-100177143D01*
X144408572Y-100105714D01*
X144408572Y-99605714D01*
X144122857Y-99605714D01*
X145051429Y-100248571D02*
X145051429Y-98748571D01*
X145908572Y-100248571D01*
X145908572Y-98748571D01*
X146622858Y-100248571D02*
X146622858Y-98748571D01*
X146980001Y-98748571D01*
X147194286Y-98820000D01*
X147337144Y-98962857D01*
X147408572Y-99105714D01*
X147480001Y-99391429D01*
X147480001Y-99605714D01*
X147408572Y-99891429D01*
X147337144Y-100034286D01*
X147194286Y-100177143D01*
X146980001Y-100248571D01*
X146622858Y-100248571D01*
X145394287Y-106548571D02*
X144680001Y-106548571D01*
X144608572Y-107262857D01*
X144680001Y-107191429D01*
X144822858Y-107120000D01*
X145180001Y-107120000D01*
X145322858Y-107191429D01*
X145394287Y-107262857D01*
X145465715Y-107405714D01*
X145465715Y-107762857D01*
X145394287Y-107905714D01*
X145322858Y-107977143D01*
X145180001Y-108048571D01*
X144822858Y-108048571D01*
X144680001Y-107977143D01*
X144608572Y-107905714D01*
X145894286Y-106548571D02*
X146394286Y-108048571D01*
X146894286Y-106548571D01*
X159458571Y-102648571D02*
X159458571Y-101148571D01*
X160315714Y-102648571D01*
X160315714Y-101148571D01*
X161601428Y-102577143D02*
X161458571Y-102648571D01*
X161172857Y-102648571D01*
X161030000Y-102577143D01*
X160958571Y-102434286D01*
X160958571Y-101862857D01*
X161030000Y-101720000D01*
X161172857Y-101648571D01*
X161458571Y-101648571D01*
X161601428Y-101720000D01*
X161672857Y-101862857D01*
X161672857Y-102005714D01*
X160958571Y-102148571D01*
X162172857Y-102648571D02*
X162958571Y-101648571D01*
X162172857Y-101648571D02*
X162958571Y-102648571D01*
X163315714Y-101648571D02*
X163887143Y-101648571D01*
X163530000Y-101148571D02*
X163530000Y-102434286D01*
X163601428Y-102577143D01*
X163744286Y-102648571D01*
X163887143Y-102648571D01*
X164387143Y-102648571D02*
X164387143Y-101648571D01*
X164387143Y-101148571D02*
X164315714Y-101220000D01*
X164387143Y-101291429D01*
X164458571Y-101220000D01*
X164387143Y-101148571D01*
X164387143Y-101291429D01*
X165315715Y-102648571D02*
X165172857Y-102577143D01*
X165101429Y-102505714D01*
X165030000Y-102362857D01*
X165030000Y-101934286D01*
X165101429Y-101791429D01*
X165172857Y-101720000D01*
X165315715Y-101648571D01*
X165530000Y-101648571D01*
X165672857Y-101720000D01*
X165744286Y-101791429D01*
X165815715Y-101934286D01*
X165815715Y-102362857D01*
X165744286Y-102505714D01*
X165672857Y-102577143D01*
X165530000Y-102648571D01*
X165315715Y-102648571D01*
X166458572Y-101648571D02*
X166458572Y-102648571D01*
X166458572Y-101791429D02*
X166530000Y-101720000D01*
X166672858Y-101648571D01*
X166887143Y-101648571D01*
X167030000Y-101720000D01*
X167101429Y-101862857D01*
X167101429Y-102648571D01*
X159458571Y-108048571D02*
X159458571Y-106548571D01*
X160315714Y-108048571D01*
X160315714Y-106548571D01*
X161601428Y-107977143D02*
X161458571Y-108048571D01*
X161172857Y-108048571D01*
X161030000Y-107977143D01*
X160958571Y-107834286D01*
X160958571Y-107262857D01*
X161030000Y-107120000D01*
X161172857Y-107048571D01*
X161458571Y-107048571D01*
X161601428Y-107120000D01*
X161672857Y-107262857D01*
X161672857Y-107405714D01*
X160958571Y-107548571D01*
X162172857Y-108048571D02*
X162958571Y-107048571D01*
X162172857Y-107048571D02*
X162958571Y-108048571D01*
X163315714Y-107048571D02*
X163887143Y-107048571D01*
X163530000Y-106548571D02*
X163530000Y-107834286D01*
X163601428Y-107977143D01*
X163744286Y-108048571D01*
X163887143Y-108048571D01*
X164387143Y-108048571D02*
X164387143Y-107048571D01*
X164387143Y-106548571D02*
X164315714Y-106620000D01*
X164387143Y-106691429D01*
X164458571Y-106620000D01*
X164387143Y-106548571D01*
X164387143Y-106691429D01*
X165315715Y-108048571D02*
X165172857Y-107977143D01*
X165101429Y-107905714D01*
X165030000Y-107762857D01*
X165030000Y-107334286D01*
X165101429Y-107191429D01*
X165172857Y-107120000D01*
X165315715Y-107048571D01*
X165530000Y-107048571D01*
X165672857Y-107120000D01*
X165744286Y-107191429D01*
X165815715Y-107334286D01*
X165815715Y-107762857D01*
X165744286Y-107905714D01*
X165672857Y-107977143D01*
X165530000Y-108048571D01*
X165315715Y-108048571D01*
X166458572Y-107048571D02*
X166458572Y-108048571D01*
X166458572Y-107191429D02*
X166530000Y-107120000D01*
X166672858Y-107048571D01*
X166887143Y-107048571D01*
X167030000Y-107120000D01*
X167101429Y-107262857D01*
X167101429Y-108048571D01*
X159522858Y-105648571D02*
X159522858Y-104648571D01*
X159522858Y-104148571D02*
X159451429Y-104220000D01*
X159522858Y-104291429D01*
X159594286Y-104220000D01*
X159522858Y-104148571D01*
X159522858Y-104291429D01*
X160165715Y-104291429D02*
X160237144Y-104220000D01*
X160380001Y-104148571D01*
X160737144Y-104148571D01*
X160880001Y-104220000D01*
X160951430Y-104291429D01*
X161022858Y-104434286D01*
X161022858Y-104577143D01*
X160951430Y-104791429D01*
X160094287Y-105648571D01*
X161022858Y-105648571D01*
X162308572Y-105577143D02*
X162165715Y-105648571D01*
X161880001Y-105648571D01*
X161737143Y-105577143D01*
X161665715Y-105505714D01*
X161594286Y-105362857D01*
X161594286Y-104934286D01*
X161665715Y-104791429D01*
X161737143Y-104720000D01*
X161880001Y-104648571D01*
X162165715Y-104648571D01*
X162308572Y-104720000D01*
X159722858Y-100248571D02*
X159722858Y-99248571D01*
X159722858Y-98748571D02*
X159651429Y-98820000D01*
X159722858Y-98891429D01*
X159794286Y-98820000D01*
X159722858Y-98748571D01*
X159722858Y-98891429D01*
X160365715Y-98891429D02*
X160437144Y-98820000D01*
X160580001Y-98748571D01*
X160937144Y-98748571D01*
X161080001Y-98820000D01*
X161151430Y-98891429D01*
X161222858Y-99034286D01*
X161222858Y-99177143D01*
X161151430Y-99391429D01*
X160294287Y-100248571D01*
X161222858Y-100248571D01*
X162508572Y-100177143D02*
X162365715Y-100248571D01*
X162080001Y-100248571D01*
X161937143Y-100177143D01*
X161865715Y-100105714D01*
X161794286Y-99962857D01*
X161794286Y-99534286D01*
X161865715Y-99391429D01*
X161937143Y-99320000D01*
X162080001Y-99248571D01*
X162365715Y-99248571D01*
X162508572Y-99320000D01*
D13*
X148210000Y-108450000D02*
X148210000Y-98290000D01*
X148210000Y-98290000D02*
X150750000Y-98290000D01*
X150750000Y-98290000D02*
X150750000Y-108450000D01*
X150750000Y-108450000D02*
X148210000Y-108450000D01*
X145250000Y-116010000D02*
X163030000Y-116010000D01*
X163030000Y-116010000D02*
X163030000Y-121090000D01*
X163030000Y-121090000D02*
X155410000Y-121090000D01*
X152870000Y-121090000D02*
X145250000Y-121090000D01*
X145250000Y-121090000D02*
X145250000Y-116010000D01*
X165570000Y-116030000D02*
X178270000Y-116030000D01*
X178270000Y-116030000D02*
X178270000Y-121110000D01*
X178270000Y-121110000D02*
X173190000Y-121110000D01*
X170650000Y-121110000D02*
X165570000Y-121110000D01*
X165570000Y-121110000D02*
X165570000Y-116030000D01*
D14*
X156340000Y-104210000D02*
X156340000Y-108030000D01*
X156340000Y-108030000D02*
X158120000Y-108030000D01*
X158120000Y-108030000D02*
X158120000Y-104210000D01*
X156340000Y-104210000D02*
X158120000Y-104210000D01*
X156340000Y-98710000D02*
X156340000Y-102530000D01*
X156340000Y-102530000D02*
X158120000Y-102530000D01*
X158120000Y-102530000D02*
X158120000Y-98710000D01*
X156340000Y-98710000D02*
X158120000Y-98710000D01*
X185077100Y-78028800D02*
G75*
G03X185077100Y-78028800I-2286000J0D01*
G01*
X142961000Y-78025000D02*
G75*
G03X142961000Y-78025000I-2286000J0D01*
G01*
X142961000Y-118150000D02*
G75*
G03X142961000Y-118150000I-2286000J0D01*
G01*
X185086000Y-118150000D02*
G75*
G03X185086000Y-118150000I-2286000J0D01*
G01*
X155786000Y-84350000D02*
G75*
G03X155786000Y-84350000I-2286000J0D01*
G01*
D13*
X148234400Y-94792800D02*
X148234400Y-89712800D01*
X148234400Y-89712800D02*
X150774400Y-89712800D01*
X150774400Y-89712800D02*
X150774400Y-94792800D01*
X150774400Y-94792800D02*
X148234400Y-94792800D01*
X151271428Y-114452381D02*
X151461905Y-114452381D01*
X151557143Y-114500000D01*
X151652381Y-114595238D01*
X151700000Y-114785714D01*
X151700000Y-115119048D01*
X151652381Y-115309524D01*
X151557143Y-115404762D01*
X151461905Y-115452381D01*
X151271428Y-115452381D01*
X151176190Y-115404762D01*
X151080952Y-115309524D01*
X151033333Y-115119048D01*
X151033333Y-114785714D01*
X151080952Y-114595238D01*
X151176190Y-114500000D01*
X151271428Y-114452381D01*
X152128571Y-115452381D02*
X152128571Y-114785714D01*
X152128571Y-114976190D02*
X152176190Y-114880952D01*
X152223809Y-114833333D01*
X152319047Y-114785714D01*
X152414286Y-114785714D01*
X153176191Y-115452381D02*
X153176191Y-114928571D01*
X153128572Y-114833333D01*
X153033334Y-114785714D01*
X152842857Y-114785714D01*
X152747619Y-114833333D01*
X153176191Y-115404762D02*
X153080953Y-115452381D01*
X152842857Y-115452381D01*
X152747619Y-115404762D01*
X152700000Y-115309524D01*
X152700000Y-115214286D01*
X152747619Y-115119048D01*
X152842857Y-115071429D01*
X153080953Y-115071429D01*
X153176191Y-115023810D01*
X153652381Y-114785714D02*
X153652381Y-115452381D01*
X153652381Y-114880952D02*
X153700000Y-114833333D01*
X153795238Y-114785714D01*
X153938096Y-114785714D01*
X154033334Y-114833333D01*
X154080953Y-114928571D01*
X154080953Y-115452381D01*
X154985715Y-114785714D02*
X154985715Y-115595238D01*
X154938096Y-115690476D01*
X154890477Y-115738095D01*
X154795238Y-115785714D01*
X154652381Y-115785714D01*
X154557143Y-115738095D01*
X154985715Y-115404762D02*
X154890477Y-115452381D01*
X154700000Y-115452381D01*
X154604762Y-115404762D01*
X154557143Y-115357143D01*
X154509524Y-115261905D01*
X154509524Y-114976190D01*
X154557143Y-114880952D01*
X154604762Y-114833333D01*
X154700000Y-114785714D01*
X154890477Y-114785714D01*
X154985715Y-114833333D01*
X155842858Y-115404762D02*
X155747620Y-115452381D01*
X155557143Y-115452381D01*
X155461905Y-115404762D01*
X155414286Y-115309524D01*
X155414286Y-114928571D01*
X155461905Y-114833333D01*
X155557143Y-114785714D01*
X155747620Y-114785714D01*
X155842858Y-114833333D01*
X155890477Y-114928571D01*
X155890477Y-115023810D01*
X155414286Y-115119048D01*
X156319048Y-115452381D02*
X156319048Y-114452381D01*
X156700001Y-114452381D01*
X156795239Y-114500000D01*
X156842858Y-114547619D01*
X156890477Y-114642857D01*
X156890477Y-114785714D01*
X156842858Y-114880952D01*
X156795239Y-114928571D01*
X156700001Y-114976190D01*
X156319048Y-114976190D01*
X157319048Y-115452381D02*
X157319048Y-114785714D01*
X157319048Y-114452381D02*
X157271429Y-114500000D01*
X157319048Y-114547619D01*
X157366667Y-114500000D01*
X157319048Y-114452381D01*
X157319048Y-114547619D01*
X169404762Y-115652381D02*
X169404762Y-114652381D01*
X169642857Y-114652381D01*
X169785715Y-114700000D01*
X169880953Y-114795238D01*
X169928572Y-114890476D01*
X169976191Y-115080952D01*
X169976191Y-115223810D01*
X169928572Y-115414286D01*
X169880953Y-115509524D01*
X169785715Y-115604762D01*
X169642857Y-115652381D01*
X169404762Y-115652381D01*
X170261905Y-114652381D02*
X170595238Y-115652381D01*
X170928572Y-114652381D01*
X171261905Y-115652381D02*
X171261905Y-114652381D01*
X171595239Y-115366667D01*
X171928572Y-114652381D01*
X171928572Y-115652381D01*
X172785715Y-115604762D02*
X172690477Y-115652381D01*
X172500000Y-115652381D01*
X172404762Y-115604762D01*
X172357143Y-115509524D01*
X172357143Y-115128571D01*
X172404762Y-115033333D01*
X172500000Y-114985714D01*
X172690477Y-114985714D01*
X172785715Y-115033333D01*
X172833334Y-115128571D01*
X172833334Y-115223810D01*
X172357143Y-115319048D01*
X173690477Y-114985714D02*
X173690477Y-115795238D01*
X173642858Y-115890476D01*
X173595239Y-115938095D01*
X173500000Y-115985714D01*
X173357143Y-115985714D01*
X173261905Y-115938095D01*
X173690477Y-115604762D02*
X173595239Y-115652381D01*
X173404762Y-115652381D01*
X173309524Y-115604762D01*
X173261905Y-115557143D01*
X173214286Y-115461905D01*
X173214286Y-115176190D01*
X173261905Y-115080952D01*
X173309524Y-115033333D01*
X173404762Y-114985714D01*
X173595239Y-114985714D01*
X173690477Y-115033333D01*
X174595239Y-115652381D02*
X174595239Y-115128571D01*
X174547620Y-115033333D01*
X174452382Y-114985714D01*
X174261905Y-114985714D01*
X174166667Y-115033333D01*
X174595239Y-115604762D02*
X174500001Y-115652381D01*
X174261905Y-115652381D01*
X174166667Y-115604762D01*
X174119048Y-115509524D01*
X174119048Y-115414286D01*
X174166667Y-115319048D01*
X174261905Y-115271429D01*
X174500001Y-115271429D01*
X174595239Y-115223810D01*
M02*
