M48
;DRILL file {KiCad 4.0.6} date Monday, 31 July 2017 'PMt' 21:17:24
;FORMAT={3:3/ absolute / metric / suppress leading zeros}
FMAT,2
METRIC,TZ
T1C0.300
T2C0.400
T3C1.000
T4C3.048
%
G90
G05
M71
T1
X10930Y-39000
X25450Y-39840
T2
X7160Y-36714
X10462Y-36714
X15270Y-23970
X15300Y-34480
X17770Y-33880
X17828Y-29602
X20300Y-28020
X20380Y-34360
X26210Y-38238
X26718Y-37476
X30274Y-37476
T3
X8900Y-41980
X8900Y-44520
X11440Y-41980
X11440Y-44520
X11860Y-24260
X11860Y-26800
X11860Y-29340
X11860Y-31880
X11884Y-15683
X11884Y-18223
X13980Y-41980
X13980Y-44520
X16520Y-41980
X16520Y-44520
X19060Y-41980
X19060Y-44520
X21600Y-41980
X21600Y-44520
X24140Y-41980
X24140Y-44520
X29220Y-42000
X29220Y-44540
X31760Y-42000
X31760Y-44540
X34300Y-42000
X34300Y-44540
X36840Y-42000
X36840Y-44540
X39380Y-42000
X39380Y-44540
T4
X3055Y-2725
X3055Y-42850
X15880Y-9050
X45171Y-2729
X45180Y-42850
T0
M30
