G04 #@! TF.FileFunction,Soldermask,Top*
%FSLAX46Y46*%
G04 Gerber Fmt 4.6, Leading zero omitted, Abs format (unit mm)*
G04 Created by KiCad (PCBNEW 4.0.6) date Monday, 31 July 2017 'PMt' 21:07:52*
%MOMM*%
%LPD*%
G01*
G04 APERTURE LIST*
%ADD10C,0.100000*%
%ADD11R,2.300000X2.300000*%
%ADD12C,2.300000*%
%ADD13R,1.670000X1.370000*%
%ADD14C,6.064000*%
G04 APERTURE END LIST*
D10*
D11*
X149480000Y-107180000D03*
D12*
X149480000Y-104640000D03*
X149480000Y-102100000D03*
X149480000Y-99560000D03*
D11*
X146520000Y-119820000D03*
D12*
X146520000Y-117280000D03*
X149060000Y-119820000D03*
X149060000Y-117280000D03*
X151600000Y-119820000D03*
X151600000Y-117280000D03*
X154140000Y-119820000D03*
X154140000Y-117280000D03*
X156680000Y-119820000D03*
X156680000Y-117280000D03*
X159220000Y-119820000D03*
X159220000Y-117280000D03*
X161760000Y-119820000D03*
X161760000Y-117280000D03*
D11*
X166840000Y-119840000D03*
D12*
X166840000Y-117300000D03*
X169380000Y-119840000D03*
X169380000Y-117300000D03*
X171920000Y-119840000D03*
X171920000Y-117300000D03*
X174460000Y-119840000D03*
X174460000Y-117300000D03*
X177000000Y-119840000D03*
X177000000Y-117300000D03*
D13*
X157230000Y-104850000D03*
X157230000Y-106120000D03*
X157230000Y-107390000D03*
X157230000Y-99350000D03*
X157230000Y-100620000D03*
X157230000Y-101890000D03*
D14*
X182791100Y-78028800D03*
X140675000Y-78025000D03*
X140675000Y-118150000D03*
X182800000Y-118150000D03*
X153500000Y-84350000D03*
D11*
X149504400Y-93522800D03*
D12*
X149504400Y-90982800D03*
M02*
