G04 #@! TF.FileFunction,Profile,NP*
%FSLAX46Y46*%
G04 Gerber Fmt 4.6, Leading zero omitted, Abs format (unit mm)*
G04 Created by KiCad (PCBNEW 4.0.6) date Monday, 31 July 2017 'PMt' 21:07:52*
%MOMM*%
%LPD*%
G01*
G04 APERTURE LIST*
%ADD10C,0.100000*%
G04 APERTURE END LIST*
D10*
X171472696Y-82680724D02*
X171531481Y-106455824D01*
X183810000Y-108550000D02*
X173610000Y-108550000D01*
X171486384Y-81211687D02*
X171472696Y-82680724D01*
X179512569Y-79142891D02*
X173549880Y-79148191D01*
X181576064Y-81206387D02*
X183867807Y-81207077D01*
X185915601Y-77080042D02*
X185931303Y-79143581D01*
X185915601Y-77080042D02*
X185931303Y-79143581D01*
X185879084Y-110612657D02*
X185915601Y-119079958D01*
X185931304Y-79143581D02*
G75*
G02X183867807Y-81207077I-2063495J-1D01*
G01*
X185931304Y-79143581D02*
G75*
G02X183867807Y-81207077I-2063495J-1D01*
G01*
X137788697Y-119049958D02*
X137788697Y-77050042D01*
X183852105Y-121143454D02*
X139852193Y-121143454D01*
X139852193Y-75016546D02*
X183852105Y-75016546D01*
X185915601Y-119079957D02*
G75*
G02X183852105Y-121143454I-2063495J-2D01*
G01*
X137788696Y-77080042D02*
G75*
G02X139852193Y-75016546I2063495J1D01*
G01*
X171486385Y-81211687D02*
G75*
G02X173549880Y-79148191I2063494J2D01*
G01*
X181576066Y-81206387D02*
G75*
G02X179512569Y-79142891I-2J2063495D01*
G01*
X173594976Y-108549320D02*
G75*
G02X171531481Y-106485824I-1J2063494D01*
G01*
X139852193Y-121143453D02*
G75*
G02X137788697Y-119079958I-2J2063494D01*
G01*
X183852104Y-75016546D02*
G75*
G02X185915601Y-77080042I2J-2063495D01*
G01*
X183815588Y-108549160D02*
G75*
G02X185879084Y-110612657I1J-2063495D01*
G01*
X183852104Y-75016546D02*
G75*
G02X185915601Y-77080042I2J-2063495D01*
G01*
M02*
