G04 #@! TF.FileFunction,Legend,Bot*
%FSLAX46Y46*%
G04 Gerber Fmt 4.6, Leading zero omitted, Abs format (unit mm)*
G04 Created by KiCad (PCBNEW 4.0.6) date Monday, 31 July 2017 'PMt' 21:07:52*
%MOMM*%
%LPD*%
G01*
G04 APERTURE LIST*
%ADD10C,0.100000*%
%ADD11C,0.300000*%
G04 APERTURE END LIST*
D10*
D11*
X160851429Y-109237143D02*
X160851429Y-108380000D01*
X159351429Y-108808571D02*
X160851429Y-108808571D01*
X159351429Y-107880000D02*
X160851429Y-107880000D01*
X159351429Y-107237143D02*
X160137143Y-107237143D01*
X160280000Y-107308572D01*
X160351429Y-107451429D01*
X160351429Y-107665714D01*
X160280000Y-107808572D01*
X160208571Y-107880000D01*
X159351429Y-105880000D02*
X160137143Y-105880000D01*
X160280000Y-105951429D01*
X160351429Y-106094286D01*
X160351429Y-106380000D01*
X160280000Y-106522857D01*
X159422857Y-105880000D02*
X159351429Y-106022857D01*
X159351429Y-106380000D01*
X159422857Y-106522857D01*
X159565714Y-106594286D01*
X159708571Y-106594286D01*
X159851429Y-106522857D01*
X159922857Y-106380000D01*
X159922857Y-106022857D01*
X159994286Y-105880000D01*
X160351429Y-105165714D02*
X159351429Y-105165714D01*
X160208571Y-105165714D02*
X160280000Y-105094286D01*
X160351429Y-104951428D01*
X160351429Y-104737143D01*
X160280000Y-104594286D01*
X160137143Y-104522857D01*
X159351429Y-104522857D01*
X159351429Y-103808571D02*
X160851429Y-103808571D01*
X159922857Y-103665714D02*
X159351429Y-103237143D01*
X160351429Y-103237143D02*
X159780000Y-103808571D01*
X159422857Y-102665714D02*
X159351429Y-102522857D01*
X159351429Y-102237142D01*
X159422857Y-102094285D01*
X159565714Y-102022857D01*
X159637143Y-102022857D01*
X159780000Y-102094285D01*
X159851429Y-102237142D01*
X159851429Y-102451428D01*
X159922857Y-102594285D01*
X160065714Y-102665714D01*
X160137143Y-102665714D01*
X160280000Y-102594285D01*
X160351429Y-102451428D01*
X160351429Y-102237142D01*
X160280000Y-102094285D01*
X160351429Y-100451428D02*
X160351429Y-99879999D01*
X160851429Y-100237142D02*
X159565714Y-100237142D01*
X159422857Y-100165714D01*
X159351429Y-100022856D01*
X159351429Y-99879999D01*
X159351429Y-99165713D02*
X159422857Y-99308571D01*
X159494286Y-99379999D01*
X159637143Y-99451428D01*
X160065714Y-99451428D01*
X160208571Y-99379999D01*
X160280000Y-99308571D01*
X160351429Y-99165713D01*
X160351429Y-98951428D01*
X160280000Y-98808571D01*
X160208571Y-98737142D01*
X160065714Y-98665713D01*
X159637143Y-98665713D01*
X159494286Y-98737142D01*
X159422857Y-98808571D01*
X159351429Y-98951428D01*
X159351429Y-99165713D01*
X159494286Y-98022856D02*
X159422857Y-97951428D01*
X159351429Y-98022856D01*
X159422857Y-98094285D01*
X159494286Y-98022856D01*
X159351429Y-98022856D01*
X160280000Y-98022856D02*
X160208571Y-97951428D01*
X160137143Y-98022856D01*
X160208571Y-98094285D01*
X160280000Y-98022856D01*
X160137143Y-98022856D01*
X160780000Y-95379999D02*
X160851429Y-95522856D01*
X160851429Y-95737142D01*
X160780000Y-95951427D01*
X160637143Y-96094285D01*
X160494286Y-96165713D01*
X160208571Y-96237142D01*
X159994286Y-96237142D01*
X159708571Y-96165713D01*
X159565714Y-96094285D01*
X159422857Y-95951427D01*
X159351429Y-95737142D01*
X159351429Y-95594285D01*
X159422857Y-95379999D01*
X159494286Y-95308570D01*
X159994286Y-95308570D01*
X159994286Y-95594285D01*
X160351429Y-94022856D02*
X159351429Y-94022856D01*
X160922857Y-94379999D02*
X159851429Y-94737142D01*
X159851429Y-93808570D01*
X159351429Y-93237142D02*
X160851429Y-93237142D01*
X159351429Y-92379999D02*
X160208571Y-93022856D01*
X160851429Y-92379999D02*
X159994286Y-93237142D01*
X159351429Y-91022856D02*
X159351429Y-91737142D01*
X160851429Y-91737142D01*
X160851429Y-90665713D02*
X159351429Y-89665713D01*
X160851429Y-89665713D02*
X159351429Y-90665713D01*
X159422857Y-89022857D02*
X159351429Y-89022857D01*
X159208571Y-89094285D01*
X159137143Y-89165714D01*
X159351429Y-87237142D02*
X160851429Y-87237142D01*
X160851429Y-86665714D01*
X160780000Y-86522856D01*
X160708571Y-86451428D01*
X160565714Y-86379999D01*
X160351429Y-86379999D01*
X160208571Y-86451428D01*
X160137143Y-86522856D01*
X160065714Y-86665714D01*
X160065714Y-87237142D01*
X160137143Y-85737142D02*
X160137143Y-85237142D01*
X159351429Y-85022856D02*
X159351429Y-85737142D01*
X160851429Y-85737142D01*
X160851429Y-85022856D01*
X159351429Y-83594285D02*
X159351429Y-84451428D01*
X159351429Y-84022856D02*
X160851429Y-84022856D01*
X160637143Y-84165713D01*
X160494286Y-84308571D01*
X160422857Y-84451428D01*
X159351429Y-82951428D02*
X160851429Y-82951428D01*
X160851429Y-82380000D01*
X160780000Y-82237142D01*
X160708571Y-82165714D01*
X160565714Y-82094285D01*
X160351429Y-82094285D01*
X160208571Y-82165714D01*
X160137143Y-82237142D01*
X160065714Y-82380000D01*
X160065714Y-82951428D01*
X159351429Y-80737142D02*
X159351429Y-81451428D01*
X160851429Y-81451428D01*
X159351429Y-80237142D02*
X160851429Y-80237142D01*
X159780000Y-79737142D01*
X160851429Y-79237142D01*
X159351429Y-79237142D01*
X167141429Y-105609999D02*
X168641429Y-105609999D01*
X168641429Y-105252856D01*
X168570000Y-105038571D01*
X168427143Y-104895713D01*
X168284286Y-104824285D01*
X167998571Y-104752856D01*
X167784286Y-104752856D01*
X167498571Y-104824285D01*
X167355714Y-104895713D01*
X167212857Y-105038571D01*
X167141429Y-105252856D01*
X167141429Y-105609999D01*
X167212857Y-103538571D02*
X167141429Y-103681428D01*
X167141429Y-103967142D01*
X167212857Y-104109999D01*
X167355714Y-104181428D01*
X167927143Y-104181428D01*
X168070000Y-104109999D01*
X168141429Y-103967142D01*
X168141429Y-103681428D01*
X168070000Y-103538571D01*
X167927143Y-103467142D01*
X167784286Y-103467142D01*
X167641429Y-104181428D01*
X167212857Y-102895714D02*
X167141429Y-102752857D01*
X167141429Y-102467142D01*
X167212857Y-102324285D01*
X167355714Y-102252857D01*
X167427143Y-102252857D01*
X167570000Y-102324285D01*
X167641429Y-102467142D01*
X167641429Y-102681428D01*
X167712857Y-102824285D01*
X167855714Y-102895714D01*
X167927143Y-102895714D01*
X168070000Y-102824285D01*
X168141429Y-102681428D01*
X168141429Y-102467142D01*
X168070000Y-102324285D01*
X167141429Y-101609999D02*
X168141429Y-101609999D01*
X168641429Y-101609999D02*
X168570000Y-101681428D01*
X168498571Y-101609999D01*
X168570000Y-101538571D01*
X168641429Y-101609999D01*
X168498571Y-101609999D01*
X168141429Y-100252856D02*
X166927143Y-100252856D01*
X166784286Y-100324285D01*
X166712857Y-100395713D01*
X166641429Y-100538570D01*
X166641429Y-100752856D01*
X166712857Y-100895713D01*
X167212857Y-100252856D02*
X167141429Y-100395713D01*
X167141429Y-100681427D01*
X167212857Y-100824285D01*
X167284286Y-100895713D01*
X167427143Y-100967142D01*
X167855714Y-100967142D01*
X167998571Y-100895713D01*
X168070000Y-100824285D01*
X168141429Y-100681427D01*
X168141429Y-100395713D01*
X168070000Y-100252856D01*
X168141429Y-99538570D02*
X167141429Y-99538570D01*
X167998571Y-99538570D02*
X168070000Y-99467142D01*
X168141429Y-99324284D01*
X168141429Y-99109999D01*
X168070000Y-98967142D01*
X167927143Y-98895713D01*
X167141429Y-98895713D01*
X167212857Y-97609999D02*
X167141429Y-97752856D01*
X167141429Y-98038570D01*
X167212857Y-98181427D01*
X167355714Y-98252856D01*
X167927143Y-98252856D01*
X168070000Y-98181427D01*
X168141429Y-98038570D01*
X168141429Y-97752856D01*
X168070000Y-97609999D01*
X167927143Y-97538570D01*
X167784286Y-97538570D01*
X167641429Y-98252856D01*
X167141429Y-96252856D02*
X168641429Y-96252856D01*
X167212857Y-96252856D02*
X167141429Y-96395713D01*
X167141429Y-96681427D01*
X167212857Y-96824285D01*
X167284286Y-96895713D01*
X167427143Y-96967142D01*
X167855714Y-96967142D01*
X167998571Y-96895713D01*
X168070000Y-96824285D01*
X168141429Y-96681427D01*
X168141429Y-96395713D01*
X168070000Y-96252856D01*
X167141429Y-94395713D02*
X168641429Y-94395713D01*
X168070000Y-94395713D02*
X168141429Y-94252856D01*
X168141429Y-93967142D01*
X168070000Y-93824285D01*
X167998571Y-93752856D01*
X167855714Y-93681427D01*
X167427143Y-93681427D01*
X167284286Y-93752856D01*
X167212857Y-93824285D01*
X167141429Y-93967142D01*
X167141429Y-94252856D01*
X167212857Y-94395713D01*
X168141429Y-93181427D02*
X167141429Y-92824284D01*
X168141429Y-92467142D02*
X167141429Y-92824284D01*
X166784286Y-92967142D01*
X166712857Y-93038570D01*
X166641429Y-93181427D01*
X168498571Y-90824285D02*
X168570000Y-90752856D01*
X168641429Y-90609999D01*
X168641429Y-90252856D01*
X168570000Y-90109999D01*
X168498571Y-90038570D01*
X168355714Y-89967142D01*
X168212857Y-89967142D01*
X167998571Y-90038570D01*
X167141429Y-90895713D01*
X167141429Y-89967142D01*
X167927143Y-89324285D02*
X167927143Y-88824285D01*
X167141429Y-88609999D02*
X167141429Y-89324285D01*
X168641429Y-89324285D01*
X168641429Y-88609999D01*
X168641429Y-87681428D02*
X168641429Y-87538571D01*
X168570000Y-87395714D01*
X168498571Y-87324285D01*
X168355714Y-87252856D01*
X168070000Y-87181428D01*
X167712857Y-87181428D01*
X167427143Y-87252856D01*
X167284286Y-87324285D01*
X167212857Y-87395714D01*
X167141429Y-87538571D01*
X167141429Y-87681428D01*
X167212857Y-87824285D01*
X167284286Y-87895714D01*
X167427143Y-87967142D01*
X167712857Y-88038571D01*
X168070000Y-88038571D01*
X168355714Y-87967142D01*
X168498571Y-87895714D01*
X168570000Y-87824285D01*
X168641429Y-87681428D01*
X167212857Y-86610000D02*
X167141429Y-86395714D01*
X167141429Y-86038571D01*
X167212857Y-85895714D01*
X167284286Y-85824285D01*
X167427143Y-85752857D01*
X167570000Y-85752857D01*
X167712857Y-85824285D01*
X167784286Y-85895714D01*
X167855714Y-86038571D01*
X167927143Y-86324285D01*
X167998571Y-86467143D01*
X168070000Y-86538571D01*
X168212857Y-86610000D01*
X168355714Y-86610000D01*
X168498571Y-86538571D01*
X168570000Y-86467143D01*
X168641429Y-86324285D01*
X168641429Y-85967143D01*
X168570000Y-85752857D01*
X167141429Y-85110000D02*
X168641429Y-85110000D01*
X167141429Y-84395714D02*
X168641429Y-84395714D01*
X168641429Y-83824286D01*
X168570000Y-83681428D01*
X168498571Y-83610000D01*
X168355714Y-83538571D01*
X168141429Y-83538571D01*
X167998571Y-83610000D01*
X167927143Y-83681428D01*
X167855714Y-83824286D01*
X167855714Y-84395714D01*
X164734286Y-103967142D02*
X164662857Y-104038571D01*
X164591429Y-104252857D01*
X164591429Y-104395714D01*
X164662857Y-104609999D01*
X164805714Y-104752857D01*
X164948571Y-104824285D01*
X165234286Y-104895714D01*
X165448571Y-104895714D01*
X165734286Y-104824285D01*
X165877143Y-104752857D01*
X166020000Y-104609999D01*
X166091429Y-104395714D01*
X166091429Y-104252857D01*
X166020000Y-104038571D01*
X165948571Y-103967142D01*
X164734286Y-102467142D02*
X164662857Y-102538571D01*
X164591429Y-102752857D01*
X164591429Y-102895714D01*
X164662857Y-103109999D01*
X164805714Y-103252857D01*
X164948571Y-103324285D01*
X165234286Y-103395714D01*
X165448571Y-103395714D01*
X165734286Y-103324285D01*
X165877143Y-103252857D01*
X166020000Y-103109999D01*
X166091429Y-102895714D01*
X166091429Y-102752857D01*
X166020000Y-102538571D01*
X165948571Y-102467142D01*
X165377143Y-100181428D02*
X165305714Y-99967142D01*
X165234286Y-99895714D01*
X165091429Y-99824285D01*
X164877143Y-99824285D01*
X164734286Y-99895714D01*
X164662857Y-99967142D01*
X164591429Y-100110000D01*
X164591429Y-100681428D01*
X166091429Y-100681428D01*
X166091429Y-100181428D01*
X166020000Y-100038571D01*
X165948571Y-99967142D01*
X165805714Y-99895714D01*
X165662857Y-99895714D01*
X165520000Y-99967142D01*
X165448571Y-100038571D01*
X165377143Y-100181428D01*
X165377143Y-100681428D01*
X165305714Y-98895714D02*
X164591429Y-98895714D01*
X166091429Y-99395714D02*
X165305714Y-98895714D01*
X166091429Y-98395714D01*
X165162857Y-97895714D02*
X165162857Y-96752857D01*
X164591429Y-96038571D02*
X166091429Y-96038571D01*
X164591429Y-95181428D01*
X166091429Y-95181428D01*
X164734286Y-93609999D02*
X164662857Y-93681428D01*
X164591429Y-93895714D01*
X164591429Y-94038571D01*
X164662857Y-94252856D01*
X164805714Y-94395714D01*
X164948571Y-94467142D01*
X165234286Y-94538571D01*
X165448571Y-94538571D01*
X165734286Y-94467142D01*
X165877143Y-94395714D01*
X166020000Y-94252856D01*
X166091429Y-94038571D01*
X166091429Y-93895714D01*
X166020000Y-93681428D01*
X165948571Y-93609999D01*
X165162857Y-92967142D02*
X165162857Y-91824285D01*
X164662857Y-91181428D02*
X164591429Y-90967142D01*
X164591429Y-90609999D01*
X164662857Y-90467142D01*
X164734286Y-90395713D01*
X164877143Y-90324285D01*
X165020000Y-90324285D01*
X165162857Y-90395713D01*
X165234286Y-90467142D01*
X165305714Y-90609999D01*
X165377143Y-90895713D01*
X165448571Y-91038571D01*
X165520000Y-91109999D01*
X165662857Y-91181428D01*
X165805714Y-91181428D01*
X165948571Y-91109999D01*
X166020000Y-91038571D01*
X166091429Y-90895713D01*
X166091429Y-90538571D01*
X166020000Y-90324285D01*
X165020000Y-89752857D02*
X165020000Y-89038571D01*
X164591429Y-89895714D02*
X166091429Y-89395714D01*
X164591429Y-88895714D01*
X165591429Y-86610000D02*
X164591429Y-86610000D01*
X166162857Y-86967143D02*
X165091429Y-87324286D01*
X165091429Y-86395714D01*
X164734286Y-85824286D02*
X164662857Y-85752858D01*
X164591429Y-85824286D01*
X164662857Y-85895715D01*
X164734286Y-85824286D01*
X164591429Y-85824286D01*
X166091429Y-84824286D02*
X166091429Y-84681429D01*
X166020000Y-84538572D01*
X165948571Y-84467143D01*
X165805714Y-84395714D01*
X165520000Y-84324286D01*
X165162857Y-84324286D01*
X164877143Y-84395714D01*
X164734286Y-84467143D01*
X164662857Y-84538572D01*
X164591429Y-84681429D01*
X164591429Y-84824286D01*
X164662857Y-84967143D01*
X164734286Y-85038572D01*
X164877143Y-85110000D01*
X165162857Y-85181429D01*
X165520000Y-85181429D01*
X165805714Y-85110000D01*
X165948571Y-85038572D01*
X166020000Y-84967143D01*
X166091429Y-84824286D01*
X162041429Y-108538572D02*
X163541429Y-108538572D01*
X162041429Y-107895715D02*
X162827143Y-107895715D01*
X162970000Y-107967144D01*
X163041429Y-108110001D01*
X163041429Y-108324286D01*
X162970000Y-108467144D01*
X162898571Y-108538572D01*
X163041429Y-107395715D02*
X163041429Y-106824286D01*
X163541429Y-107181429D02*
X162255714Y-107181429D01*
X162112857Y-107110001D01*
X162041429Y-106967143D01*
X162041429Y-106824286D01*
X163041429Y-106538572D02*
X163041429Y-105967143D01*
X163541429Y-106324286D02*
X162255714Y-106324286D01*
X162112857Y-106252858D01*
X162041429Y-106110000D01*
X162041429Y-105967143D01*
X163041429Y-105467143D02*
X161541429Y-105467143D01*
X162970000Y-105467143D02*
X163041429Y-105324286D01*
X163041429Y-105038572D01*
X162970000Y-104895715D01*
X162898571Y-104824286D01*
X162755714Y-104752857D01*
X162327143Y-104752857D01*
X162184286Y-104824286D01*
X162112857Y-104895715D01*
X162041429Y-105038572D01*
X162041429Y-105324286D01*
X162112857Y-105467143D01*
X162184286Y-104110000D02*
X162112857Y-104038572D01*
X162041429Y-104110000D01*
X162112857Y-104181429D01*
X162184286Y-104110000D01*
X162041429Y-104110000D01*
X162970000Y-104110000D02*
X162898571Y-104038572D01*
X162827143Y-104110000D01*
X162898571Y-104181429D01*
X162970000Y-104110000D01*
X162827143Y-104110000D01*
X163612857Y-102324286D02*
X161684286Y-103610000D01*
X163612857Y-100752857D02*
X161684286Y-102038571D01*
X163398571Y-100324285D02*
X163470000Y-100252856D01*
X163541429Y-100109999D01*
X163541429Y-99752856D01*
X163470000Y-99609999D01*
X163398571Y-99538570D01*
X163255714Y-99467142D01*
X163112857Y-99467142D01*
X162898571Y-99538570D01*
X162041429Y-100395713D01*
X162041429Y-99467142D01*
X162112857Y-98252857D02*
X162041429Y-98395714D01*
X162041429Y-98681428D01*
X162112857Y-98824285D01*
X162255714Y-98895714D01*
X162827143Y-98895714D01*
X162970000Y-98824285D01*
X163041429Y-98681428D01*
X163041429Y-98395714D01*
X162970000Y-98252857D01*
X162827143Y-98181428D01*
X162684286Y-98181428D01*
X162541429Y-98895714D01*
X163541429Y-97252857D02*
X163541429Y-97110000D01*
X163470000Y-96967143D01*
X163398571Y-96895714D01*
X163255714Y-96824285D01*
X162970000Y-96752857D01*
X162612857Y-96752857D01*
X162327143Y-96824285D01*
X162184286Y-96895714D01*
X162112857Y-96967143D01*
X162041429Y-97110000D01*
X162041429Y-97252857D01*
X162112857Y-97395714D01*
X162184286Y-97467143D01*
X162327143Y-97538571D01*
X162612857Y-97610000D01*
X162970000Y-97610000D01*
X163255714Y-97538571D01*
X163398571Y-97467143D01*
X163470000Y-97395714D01*
X163541429Y-97252857D01*
X162112857Y-96181429D02*
X162041429Y-96038572D01*
X162041429Y-95752857D01*
X162112857Y-95610000D01*
X162255714Y-95538572D01*
X162327143Y-95538572D01*
X162470000Y-95610000D01*
X162541429Y-95752857D01*
X162541429Y-95967143D01*
X162612857Y-96110000D01*
X162755714Y-96181429D01*
X162827143Y-96181429D01*
X162970000Y-96110000D01*
X163041429Y-95967143D01*
X163041429Y-95752857D01*
X162970000Y-95610000D01*
X162041429Y-94895714D02*
X163041429Y-94895714D01*
X163541429Y-94895714D02*
X163470000Y-94967143D01*
X163398571Y-94895714D01*
X163470000Y-94824286D01*
X163541429Y-94895714D01*
X163398571Y-94895714D01*
X163041429Y-94181428D02*
X161541429Y-94181428D01*
X162970000Y-94181428D02*
X163041429Y-94038571D01*
X163041429Y-93752857D01*
X162970000Y-93610000D01*
X162898571Y-93538571D01*
X162755714Y-93467142D01*
X162327143Y-93467142D01*
X162184286Y-93538571D01*
X162112857Y-93610000D01*
X162041429Y-93752857D01*
X162041429Y-94038571D01*
X162112857Y-94181428D01*
X162184286Y-92824285D02*
X162112857Y-92752857D01*
X162041429Y-92824285D01*
X162112857Y-92895714D01*
X162184286Y-92824285D01*
X162041429Y-92824285D01*
X162112857Y-91467142D02*
X162041429Y-91609999D01*
X162041429Y-91895713D01*
X162112857Y-92038571D01*
X162184286Y-92109999D01*
X162327143Y-92181428D01*
X162755714Y-92181428D01*
X162898571Y-92109999D01*
X162970000Y-92038571D01*
X163041429Y-91895713D01*
X163041429Y-91609999D01*
X162970000Y-91467142D01*
X162041429Y-90609999D02*
X162112857Y-90752857D01*
X162184286Y-90824285D01*
X162327143Y-90895714D01*
X162755714Y-90895714D01*
X162898571Y-90824285D01*
X162970000Y-90752857D01*
X163041429Y-90609999D01*
X163041429Y-90395714D01*
X162970000Y-90252857D01*
X162898571Y-90181428D01*
X162755714Y-90109999D01*
X162327143Y-90109999D01*
X162184286Y-90181428D01*
X162112857Y-90252857D01*
X162041429Y-90395714D01*
X162041429Y-90609999D01*
X162184286Y-89467142D02*
X162112857Y-89395714D01*
X162041429Y-89467142D01*
X162112857Y-89538571D01*
X162184286Y-89467142D01*
X162041429Y-89467142D01*
X163041429Y-88109999D02*
X162041429Y-88109999D01*
X163041429Y-88752856D02*
X162255714Y-88752856D01*
X162112857Y-88681428D01*
X162041429Y-88538570D01*
X162041429Y-88324285D01*
X162112857Y-88181428D01*
X162184286Y-88109999D01*
X162041429Y-87395713D02*
X163541429Y-87395713D01*
X162612857Y-87252856D02*
X162041429Y-86824285D01*
X163041429Y-86824285D02*
X162470000Y-87395713D01*
X163612857Y-85109999D02*
X161684286Y-86395713D01*
X162112857Y-84038570D02*
X162041429Y-84181427D01*
X162041429Y-84467141D01*
X162112857Y-84609998D01*
X162255714Y-84681427D01*
X162827143Y-84681427D01*
X162970000Y-84609998D01*
X163041429Y-84467141D01*
X163041429Y-84181427D01*
X162970000Y-84038570D01*
X162827143Y-83967141D01*
X162684286Y-83967141D01*
X162541429Y-84681427D01*
X162041429Y-82681427D02*
X162827143Y-82681427D01*
X162970000Y-82752856D01*
X163041429Y-82895713D01*
X163041429Y-83181427D01*
X162970000Y-83324284D01*
X162112857Y-82681427D02*
X162041429Y-82824284D01*
X162041429Y-83181427D01*
X162112857Y-83324284D01*
X162255714Y-83395713D01*
X162398571Y-83395713D01*
X162541429Y-83324284D01*
X162612857Y-83181427D01*
X162612857Y-82824284D01*
X162684286Y-82681427D01*
X162041429Y-81967141D02*
X163041429Y-81967141D01*
X162898571Y-81967141D02*
X162970000Y-81895713D01*
X163041429Y-81752855D01*
X163041429Y-81538570D01*
X162970000Y-81395713D01*
X162827143Y-81324284D01*
X162041429Y-81324284D01*
X162827143Y-81324284D02*
X162970000Y-81252855D01*
X163041429Y-81109998D01*
X163041429Y-80895713D01*
X162970000Y-80752855D01*
X162827143Y-80681427D01*
X162041429Y-80681427D01*
M02*
